<svg xmlns="http://www.w3.org/2000/svg" viewBox="0 0 153.08 63.27"><defs><style>.cls-1{fill:#fff;fill-rule:evenodd;}</style></defs><title>Ресурс 1</title><g id="Слой_2" data-name="Слой 2"><g id="Шапка"><g id="Shape_149" data-name="Shape 149"><path class="cls-1" d="M150.48,44.65c-1.74-1.86-4.23-2.08-7-2.08h-.24a13.55,13.55,0,0,0-9-4.4c-3.49-.23-6.36-.23-8.83.83.08-.67.15-1.55.21-2.22a4.28,4.28,0,0,0,1.64.21c3.07,0,6.29-2.58,6.57-8.25.13-3.12-.38-5.41-1.48-6.56a2.66,2.66,0,0,0-1.94-.87c-1.65,0-3.19,1.44-4.39,4.06,0-.29,0-.54,0-.77,0-.48,0-.87,0-1.31,0-1.11-.05-1.73-1.14-1.73a1.53,1.53,0,0,0-1.08.48,2.56,2.56,0,0,0-.61,1.94c0,1.38,0,2.79,0,4.28-.5,2.24-1.41,4-2.34,4.7A17.48,17.48,0,0,0,122,28.7c.42-3,0-5.64-1.23-7a2.1,2.1,0,0,0-2-.82,3.61,3.61,0,0,0-2.11,1.26.94.94,0,0,0-1.25-.34c-2.58,1-4.22,4-4.39,8a8.06,8.06,0,0,0,1.89,6,4.31,4.31,0,0,0,3.15,1.4,4.59,4.59,0,0,0,3.66-2.16,4.58,4.58,0,0,0,3.35-2c-.12,2.49-.31,4.94-.57,7.3a18,18,0,0,0-5.19,6.54c-2,3.93-1.76,7.55-.72,9.24a2,2,0,0,0,1.68,1.11c3.09,0,5.57-8.57,6.78-16a14.87,14.87,0,0,1,8.43-2,11.58,11.58,0,0,1,6.81,2.18,8.43,8.43,0,0,0-5.89,7.09A5.58,5.58,0,0,0,135.49,53,4.19,4.19,0,0,0,139,54.37a6.06,6.06,0,0,0,4.35-2A8.59,8.59,0,0,0,145.21,46a9.21,9.21,0,0,0-.6-2.77c3.91.64,6.26,4,6.05,8.76a10,10,0,0,1-9.89,9.41c-3,0-5.2-.73-6.36-2.12a4.52,4.52,0,0,1-.87-3.77c0-.14.06-.27.08-.38.09-.38.16-.69-.05-1a.64.64,0,0,0-.53-.24,1.73,1.73,0,0,0-.39.06,3.44,3.44,0,0,0-2.48,3.19c0,2.94,3.13,6.1,10,6.1,7.14,0,12.44-4.33,12.88-11.1A9.52,9.52,0,0,0,150.48,44.65ZM125.9,33.54c1.05-6.79,3.11-9.67,3.75-9.67a.32.32,0,0,1,.24.13c.46.49.87,2.16.66,5.4-.25,3.48-1.49,5.56-3.32,5.56a2.2,2.2,0,0,1-1.39-.39Zm-9.23,1.16a1.7,1.7,0,0,1-1.18-.59,6.59,6.59,0,0,1-1.29-4.74,10.55,10.55,0,0,1,1.32-5.25,12.44,12.44,0,0,0-.58,5.41,6.58,6.58,0,0,0,2.59,4.92A1.72,1.72,0,0,1,116.67,34.7Zm3.23-5.85a9.75,9.75,0,0,1-1,4.13c-1.17-.72-1.67-2.5-1.73-3.92-.13-2.52.94-4.69,1.79-4.94a.34.34,0,0,1,.2.13C119.63,24.75,120.06,26.4,119.9,28.85Zm-1,25.19a.42.42,0,0,1-.28-.23c-.49-.79-.56-3.25,1.22-6.81A15.32,15.32,0,0,1,122,43.79C120.94,50.43,119.48,53.76,118.89,54Zm22.62-2.78a2.76,2.76,0,0,1-2,.92h-.11a2.41,2.41,0,0,1-1.9-.84,3.86,3.86,0,0,1-.58-3.13,5.93,5.93,0,0,1,5-5,7,7,0,0,1,1,3.34A6.34,6.34,0,0,1,141.52,51.26Zm-30.7-14.2c-.71-.26-1.44-1.93-.9-8.44.29-3.71.41-5.85-.49-6.82a1.62,1.62,0,0,0-1.24-.51C106,21.3,104,23.9,102.54,27A63,63,0,0,1,103,20.1a10.83,10.83,0,0,0,5.12-5.16c1.82-3.57,1.58-7.38.41-9.29a2,2,0,0,0-1.66-1.15c-2.72,0-5.23,5.69-6.43,14.52a8.75,8.75,0,0,1-3.62.08,5.47,5.47,0,0,1-.89-.24,6.81,6.81,0,0,0,2.91-5.48,6,6,0,0,0-1.41-4.5,7.23,7.23,0,0,0-5.26-2.1h-.36c-4.45,0-9.15,2.4-9.53,7-.38,4,3.19,6.38,6.65,8.66l.69.46c3.31,2.22,6.24,4.53,5.76,8.35-.38,3.13-4.33,5.66-8.54,5.33A7.31,7.31,0,0,1,81.65,34a6.73,6.73,0,0,1-1.43-5.14c.27-2,1.13-3.49,3.09-5.41.37-.4.69-.83.51-1.26-.08-.17-.26-.49-1-.38a8.42,8.42,0,0,0-3,1.23,7.59,7.59,0,0,0-2.28,5.18c-.24,4.21,1.93,9.56,8.81,10.75a12.47,12.47,0,0,0,2.09.18c5.61,0,10.06-3.78,10.37-8.79.27-4.7-3.35-7.34-6.77-9.45l-.37-.23c-3.32-2-6.45-3.91-6-7.63.38-2.85,3.11-4.13,5.64-4.13l.54,0c2.8.18,4.37,1.78,4.41,4.51a4.36,4.36,0,0,1-1,3.07,1.49,1.49,0,0,1-1,.5,1,1,0,0,1-.83-.66,3.93,3.93,0,0,1-.06-2.18l.08-.25c.15-.45.25-.75,0-1a.64.64,0,0,0-.54-.25,1.82,1.82,0,0,0-.39.05,3,3,0,0,0-2.29,2.59c-.09,2.38,1.34,5.12,5.61,5.69a14.42,14.42,0,0,0,4.37,0c-.27,2.5-.45,5.15-.52,7.89,0,1.63-.06,2.58-.08,3.3,0,1.08,0,1.62,0,3.08,0,1.25.18,1.69,1.22,1.69.57,0,1.55-.48,1.6-2.21,1-6.82,3.85-10.59,4.58-10.63a6.68,6.68,0,0,1-.06,2.08c-.1.95-.22,2.13-.25,3.55-.12,5.84,1,8.81,3.45,9.08,1.21.15,1.44-.4,1.48-.62S111.68,37.45,110.82,37.07Zm-4.5-29.4s.16.1.29.41a8.87,8.87,0,0,1-.82,6.67,8.18,8.18,0,0,1-2.46,3C104.3,11.47,105.77,7.91,106.31,7.66ZM77.58,22.09l-.15-.19a1,1,0,0,0-.82-.29c-.87,0-2.3.42-2.43,1.51-.12.76-.25,2.07-.34,3.45-.65,5.23-2.2,8.13-3,8.13a.92.92,0,0,1-.73-.34c-1.07-1.21-1.18-5.22-.34-11.9l0-.27L69.61,22a1,1,0,0,0-.78-.25c-.88,0-2.33.42-2.46,1.55a39.06,39.06,0,0,0-.19,6.83c-.59,1.9-1.92,5-4.32,5a2.37,2.37,0,0,1-1.7-.79,7.23,7.23,0,0,1-1.49-5.14c.16-3.7,1.28-6.61,2.55-6.61a.72.72,0,0,1,.66.29c.4.57.23,2-.15,3l-.08.23c-.18.47-.29.78-.09,1.07.09.13.29.35.9.21s2.27-.94,2.4-1.94a5.19,5.19,0,0,0-1-3.69,2.91,2.91,0,0,0-2.23-.92c-3.25,0-5.89,3.8-6.14,8.84,0,.32,0,.64,0,.94-.89,3.47-1.61,4.68-1.9,4.94-.24-.4-.55-2.32.43-7.49v-.28l-.15-.17a1.1,1.1,0,0,0-.87-.28c-1,0-2.09.44-2.28,1.42a7.61,7.61,0,0,0-.1.87l0,.32c-.55,3.1-1.66,4.72-2.48,4.72a.7.7,0,0,1-.44-.28c-.67-.75-1.24-2.72-.93-5.27.41-3.42,1.79-5.71,3.45-5.71a1.2,1.2,0,0,1,1,.33c.23.31.2.94-.08,1.84l0,.13c-.21.57-.34.91-.12,1.23a.82.82,0,0,0,.9.23c.75-.14,2.27-1,2.4-2a3.17,3.17,0,0,0-.82-2.4,3.75,3.75,0,0,0-2.86-1.06c-2.83,0-6.36,2.14-7,8.2-1.06,3.52-2.41,5.16-3,5.16-.76,0-2-2.25-2.25-7.26A51.59,51.59,0,0,0,43.7,14.94c.82-3.55,1.38-9.31,0-11a1.36,1.36,0,0,0-1.09-.56c-3.95,0-7.13,12.15-7.67,20.87a27.25,27.25,0,0,0,.06,4c-.88,4.19-2.55,6.85-3.32,6.85S29.87,33,29.58,28.25A49.17,49.17,0,0,0,34.7,16c.79-3.38,1.31-8.88,0-10.51a1.32,1.32,0,0,0-1.06-.54c-3.77,0-6.81,11.59-7.33,19.9-.35,6,1.31,10,2.83,11.63a3,3,0,0,0,2.08,1.07c1.84,0,3.5-2.5,4.57-5.11,1,3.12,2.6,5.13,4.28,5.13,1.28,0,2.66-1.24,3.88-3.44.73,2.06,2.16,3.13,3.39,3.13h.17c1.18-.1,2.31-1,3.26-2.61C51.18,36.76,52,38,53.09,38c1.32,0,2.43-1.84,3.23-3.77a5.53,5.53,0,0,0,4.91,3.39c2.06,0,4-1.47,5.54-4.09.92,3,2.59,3.54,3.58,3.54s1.95-.71,2.81-2l0,.28A29.31,29.31,0,0,0,67.51,45c-1,2.93-1,6.06.06,7.61a1.93,1.93,0,0,0,1.6.91c1.85,0,4.65-2.53,7.58-24.44.46-3.18.8-6.65.8-6.65ZM42,6.76c.32.86.4,4.25-.66,8.3a58.06,58.06,0,0,1-3,8.53C38.7,17,40.91,8.12,42,6.76ZM33,8.23c.29.88.34,4.07-.64,7.85a55.12,55.12,0,0,1-2.81,8C30,17.91,32,9.62,33,8.23ZM69.7,50.31a.52.52,0,0,1-.31-.25c-.47-.67-.61-2.33.37-5a35.7,35.7,0,0,1,2.85-5.91C71.49,46.86,70.27,50.08,69.7,50.31ZM59.56,41.38a1.14,1.14,0,0,0-.67-.32c-.4,0-.56.34-.66.56a5,5,0,0,1-.24.47c-.6,1.08-2.53,1.62-5.75,1.62A88.1,88.1,0,0,1,39,42.22c-5.3-.9-11.34-1.86-16.31-2.21a105.26,105.26,0,0,0,2-15.68c0-.59-.9-.73-1.22-.73s-1.71.16-1.79,2.29l-.13,2.55c-.47,2.51-1.87,6.76-6,7h-.28a5.25,5.25,0,0,1-4.08-1.84C9.29,31.34,8.46,27.2,9,22.48a25.26,25.26,0,0,1,1.08-4.79c6.62-.15,12.94-3.16,14.47-6.93a4.17,4.17,0,0,0-.19-3.95c-.9-1.34-2.72-1.94-5-1.64-4.62.6-9.21,4.48-11.79,9.94-2.91-.82-5.42-3.3-4.78-6.65C3.79,3.56,10.31,2,12.45,2a1.89,1.89,0,0,1,.63.07A2.67,2.67,0,0,0,14,2.2c.64,0,1.07-.25,1.16-.66C15.33.82,14.35.35,14,.17A2.93,2.93,0,0,0,12.82,0C9.9,0,1.48,2,.17,8.6a6.68,6.68,0,0,0,.92,5.22,9.34,9.34,0,0,0,5.67,3.55,24,24,0,0,0-1.22,5.5c-.54,5,.54,9.37,3,12.06a8.38,8.38,0,0,0,6.41,2.82h.3A8.44,8.44,0,0,0,21,35.13a47.57,47.57,0,0,1-.82,4.79H19.12c-5.93,0-9.25,1.23-10.43,3.86A4.41,4.41,0,0,0,9,48.13a6.28,6.28,0,0,0,5.22,2.76,6,6,0,0,0,1-.08c3.22-.58,5.47-3.34,7-8.7a111.34,111.34,0,0,1,16.32,2.31l2.94.62c5.34,1.14,10.39,2.21,14.06,2.21,2.11,0,3.57-.37,4.47-1.11A2.6,2.6,0,0,0,61,44,3.43,3.43,0,0,0,59.56,41.38ZM18.8,7.61a4.77,4.77,0,0,1,.84-.08,1.73,1.73,0,0,1,1.5.62A2.41,2.41,0,0,1,21,10.35c-1.31,2.74-6.05,4.73-10,5C13,11.22,16,8.13,18.8,7.61ZM15.47,48.21a3.36,3.36,0,0,1-1.09.19A2.61,2.61,0,0,1,12,47.11a3,3,0,0,1,.23-3c.54-.88,2.27-1.91,7.35-2C18.59,45.54,17.19,47.6,15.47,48.21Z"/></g></g></g></svg>